<svg xmlns="http://www.w3.org/2000/svg" viewBox="0 0 1120 584.62"><defs><style>.cls-1{fill:#c4eae4;}.cls-2{fill:#00796d;}.cls-3,.cls-9{fill:#bae659;}.cls-10,.cls-13,.cls-18,.cls-4,.cls-6{isolation:isolate;}.cls-18,.cls-4{font-size:19.87px;font-family:Arial-BoldMT, Arial;font-weight:700;}.cls-10,.cls-15,.cls-16,.cls-18,.cls-4{fill:#333;}.cls-5{letter-spacing:-0.04em;}.cls-6{font-size:20.82px;}.cls-13,.cls-14,.cls-17,.cls-6{fill:#fff;}.cls-6,.cls-7{font-family:NotoSansCJKtc-Bold-B5pc-H, Noto Sans CJK TC;}.cls-7{font-weight:400;}.cls-18,.cls-8{letter-spacing:-0.04em;}.cls-9{opacity:0.27;}.cls-10{font-size:20px;font-family:NotoSansCJKtc-Regular-B5pc-H, Noto Sans CJK TC;}.cls-11{fill:#d2ede8;}.cls-12,.cls-19{fill:none;}.cls-12{stroke:#fff;stroke-miterlimit:10;}.cls-13,.cls-15{font-size:26.08px;}.cls-13,.cls-14,.cls-15,.cls-16{font-family:ArialMT, Arial;}.cls-14,.cls-16{font-size:22px;}.cls-19{stroke:#b3b3b3;stroke-linejoin:round;}</style></defs><g id="bg"><rect class="cls-1" x="849.47" y="92.95" width="83.14" height="28.44" rx="14.22"/><rect class="cls-1" x="849.47" y="133.04" width="83.14" height="28.44" rx="14.22"/><polygon class="cls-2" points="967.46 43.16 481.3 43.16 481.3 75 967.46 75 983.32 59.08 967.46 43.16"/><polygon class="cls-3" points="200.99 43.16 481.3 43.16 481.3 75 200.99 75 185.14 59.08 200.99 43.16"/><g id="Group_5213" data-name="Group 5213"><g id="Group_5212" data-name="Group 5212"><g id="企"><text class="cls-4" transform="translate(868.58 115.38)">AA<tspan class="cls-5" x="28.7" y="0">A</tspan></text></g></g></g><g id="Group_5213-2" data-name="Group 5213"><g id="Group_5212-2" data-name="Group 5212"><g id="企-2" data-name="企"><text class="cls-6" transform="translate(846.34 66.3) scale(0.98 1)">BBB以上</text></g></g></g><g id="Group_5213-3" data-name="Group 5213"><g id="Group_5212-3" data-name="Group 5212"><g id="企-3" data-name="企"><text class="cls-4" transform="translate(214.04 66.3)">BBB<tspan class="cls-7" x="43.05" y="0">以下</tspan></text></g></g></g><g id="Group_5213-4" data-name="Group 5213"><g id="Group_5212-4" data-name="Group 5212"><g id="企-4" data-name="企"><text class="cls-4" transform="translate(876.06 154.08)">A<tspan class="cls-8" x="14.35" y="0">A</tspan></text></g></g></g><rect class="cls-9" x="179.64" y="156.29" width="83.14" height="28.44" rx="14.22"/><rect class="cls-9" x="179.64" y="249.91" width="83.14" height="28.44" rx="14.22"/><g id="Group_5213-5" data-name="Group 5213"><g id="Group_5212-5" data-name="Group 5212"><g id="企-5" data-name="企"><text class="cls-4" transform="translate(206.87 178.72)">BB</text></g></g></g><g id="Group_5213-6" data-name="Group 5213"><g id="Group_5212-6" data-name="Group 5212"><g id="企-6" data-name="企"><text class="cls-4" transform="translate(214.04 270.95)">B</text></g></g></g><rect class="cls-9" x="182.42" y="362.21" width="83.14" height="28.44" rx="14.22"/><rect class="cls-9" x="182.42" y="482.55" width="83.14" height="28.44" rx="14.22"/><g id="Group_5213-7" data-name="Group 5213"><g id="Group_5212-7" data-name="Group 5212"><g id="企-7" data-name="企"><text class="cls-4" transform="translate(200.66 384.64)">CCC</text></g></g></g><g id="Group_5213-8" data-name="Group 5213"><g id="Group_5212-8" data-name="Group 5212"><g id="企-8" data-name="企"><text class="cls-10" transform="translate(193.06 503.91)">無評等</text></g></g></g></g><g id="Layer_1" data-name="Layer 1"><circle class="cls-1" cx="581.06" cy="344.84" r="222.98"/><path class="cls-11" d="M358.39,356.61A222.92,222.92,0,0,0,481.3,544.3V145.37A223,223,0,0,0,358.39,356.61Z"/><circle class="cls-12" cx="581.06" cy="344.84" r="216.15"/><circle class="cls-2" cx="626.92" cy="400.38" r="136.25"/><circle class="cls-2" cx="656.55" cy="206.38" r="53.5"/><circle class="cls-2" cx="569.86" cy="163.81" r="2"/><circle class="cls-2" cx="536.13" cy="142.51" r="2.75"/><circle class="cls-3" cx="441.9" cy="241.35" r="34.25"/><circle class="cls-3" cx="420.04" cy="319.46" r="22.75"/><circle class="cls-3" cx="413.75" cy="377.93" r="1.5"/><circle class="cls-3" cx="423.29" cy="431.84" r="3.25"/><text class="cls-13" transform="translate(585.6 435.55)">54.5</text><text class="cls-14" transform="translate(642.57 435.55)">%</text><text class="cls-15" transform="translate(938.62 120.14)">1.1</text><text class="cls-16" transform="translate(983.32 120.14)">%</text><text class="cls-15" transform="translate(938.62 154.08)">0.8</text><text class="cls-16" transform="translate(983.32 154.08)">%</text><text class="cls-15" transform="translate(272.77 179.68)">13.7</text><text class="cls-16" transform="translate(323.47 179.68)">%</text><text class="cls-15" transform="translate(272.77 270.95)">9.1</text><text class="cls-16" transform="translate(317.47 270.95)">%</text><text class="cls-13" transform="translate(619.14 229.85)">21.4 </text><text class="cls-14" transform="translate(675.66 229.85)">%</text><line class="cls-12" x1="481.3" y1="153.03" x2="481.3" y2="536.63"/><rect class="cls-17" x="585.6" y="365.21" width="82.64" height="28.44" rx="14.22"/><g id="Group_5213-9" data-name="Group 5213"><g id="Group_5212-9" data-name="Group 5212"><g id="企-9" data-name="企"><text class="cls-4" transform="translate(603.04 387.92)">BBB</text></g></g></g><rect class="cls-17" x="624.57" y="171.54" width="63.97" height="28.44" rx="14.22"/><g id="Group_5213-10" data-name="Group 5213"><g id="Group_5212-10" data-name="Group 5212"><g id="企-10" data-name="企"><text class="cls-18" transform="translate(649.16 192.27)">A</text></g></g></g><polyline class="cls-19" points="538.88 135.52 567.23 107.17 845.26 107.17"/><polyline class="cls-19" points="425.27 204.81 392.05 171.59 349.46 171.59"/><polyline class="cls-19" points="413.9 294.96 380.68 261.74 349.46 261.74"/><text class="cls-15" transform="translate(272.77 386.25)">0.6</text><text class="cls-16" transform="translate(317.47 386.25)">%</text><text class="cls-15" transform="translate(272.77 503.91)">1.3</text><text class="cls-16" transform="translate(317.47 503.91)">%</text><line class="cls-19" x1="407.65" y1="377.04" x2="349.46" y2="377.04"/><polyline class="cls-19" points="349.46 492.89 373.63 492.89 415.25 440.71"/><polyline class="cls-19" points="575.72 159.93 590.27 145.37 845.26 145.37"/></g></svg>