<svg id="bg" xmlns="http://www.w3.org/2000/svg" viewBox="0 0 320 434"><defs><style>.cls-1,.cls-6{fill:#bae659;}.cls-2{fill:#c4eae4;}.cls-13,.cls-3{fill:none;}.cls-3{stroke:#fff;stroke-miterlimit:10;}.cls-4{fill:#d2ede8;}.cls-5{fill:#00796d;}.cls-6{opacity:0.27;}.cls-10,.cls-14,.cls-17,.cls-18,.cls-19,.cls-7,.cls-9{isolation:isolate;}.cls-17,.cls-7,.cls-9{font-size:14px;}.cls-10,.cls-17,.cls-19,.cls-7,.cls-9{fill:#333;}.cls-10,.cls-17,.cls-7,.cls-8{font-family:Arial-BoldMT, Arial;font-weight:700;}.cls-18,.cls-19,.cls-8{font-size:16px;}.cls-18,.cls-19,.cls-9{font-family:NotoSansCJKtc-Bold-B5pc-H, Noto Sans CJK TC;}.cls-10{font-size:14.16px;}.cls-11{letter-spacing:-0.04em;}.cls-12{letter-spacing:-0.04em;}.cls-13{stroke:#b3b3b3;stroke-linejoin:round;}.cls-14{font-size:17.86px;}.cls-14,.cls-15,.cls-16,.cls-18{fill:#fff;}.cls-14,.cls-15{font-family:ArialMT, Arial;}.cls-15{font-size:15.07px;}.cls-17{letter-spacing:-0.04em;}</style></defs><polygon class="cls-1" points="0.67 104.33 0.67 404.7 16.59 422.52 32.51 404.7 32.51 104.33 0.67 104.33"/><circle class="cls-2" cx="183.37" cy="226.82" r="131.71"/><circle class="cls-3" cx="183.37" cy="226.82" r="129.95"/><path class="cls-4" d="M190.2,356A129.36,129.36,0,0,0,299.1,284.7H67.65A129.37,129.37,0,0,0,190.2,356Z"/><circle class="cls-5" cx="220.2" cy="200.77" r="79.05"/><circle class="cls-5" cx="110.62" cy="169.73" r="31.04"/><circle class="cls-5" cx="78.34" cy="233.32" r="1.16"/><circle class="cls-5" cx="65.98" cy="252.89" r="1.6"/><circle class="cls-1" cx="121.13" cy="310.03" r="19.87"/><circle class="cls-1" cx="168.65" cy="330.5" r="13.2"/><circle class="cls-1" cx="202.57" cy="323.9" r="0.87"/><circle class="cls-1" cx="233.85" cy="318.36" r="1.89"/><rect class="cls-6" x="38.97" y="381.19" width="67.48" height="23.08" rx="11.54"/><g id="Group_5213" data-name="Group 5213"><g id="Group_5212" data-name="Group 5212"><g id="企"><text class="cls-7" transform="translate(62.49 397.9)">BB</text></g></g></g><text class="cls-8" transform="translate(52.64 421.96)">13.7%</text><rect class="cls-6" x="110.62" y="381.19" width="67.48" height="23.08" rx="11.54"/><g id="Group_5213-2" data-name="Group 5213"><g id="Group_5212-2" data-name="Group 5212"><g id="企-2" data-name="企"><text class="cls-7" transform="translate(139.25 397.9)">B</text></g></g></g><text class="cls-8" transform="translate(128.23 421.4)">9.1%</text><rect class="cls-6" x="182.27" y="381.19" width="67.48" height="23.08" rx="11.54"/><g id="Group_5213-3" data-name="Group 5213"><g id="Group_5212-3" data-name="Group 5212"><g id="企-3" data-name="企"><text class="cls-7" transform="translate(200.67 397.9)">CCC</text></g></g></g><text class="cls-8" transform="translate(199.88 422.52)">0.6%</text><rect class="cls-6" x="253.92" y="381.19" width="67.48" height="23.08" rx="11.54"/><g id="Group_5213-4" data-name="Group 5213"><g id="Group_5212-4" data-name="Group 5212"><g id="企-4" data-name="企"><text class="cls-9" transform="translate(267.44 397.9)">無評等</text></g></g></g><text class="cls-8" transform="translate(270.51 422.3)">1.3%</text><rect class="cls-2" x="38.97" y="25.43" width="67.48" height="23.08" rx="11.54"/><g id="Group_5213-5" data-name="Group 5213"><g id="Group_5212-5" data-name="Group 5212"><g id="企-5" data-name="企"><text class="cls-10" transform="translate(55.47 42.15)">AA<tspan class="cls-11" x="20.45" y="0">A</tspan></text></g></g></g><text class="cls-8" transform="translate(55.47 66.2)">1.1%</text><rect class="cls-2" x="133.06" y="25.43" width="67.48" height="23.08" rx="11.54"/><g id="Group_5213-6" data-name="Group 5213"><g id="Group_5212-6" data-name="Group 5212"><g id="企-6" data-name="企"><text class="cls-10" transform="translate(156.44 42.15)">A<tspan class="cls-12" x="10.22" y="0">A</tspan></text></g></g></g><text class="cls-8" transform="translate(150.67 65.64)">0.8%</text><polyline class="cls-13" points="72.71 373.21 72.71 341.74 103.04 323.9"/><polyline class="cls-13" points="141.15 373.21 141.15 341.74 152 335.36"/><polyline class="cls-13" points="206.15 331.22 216.01 341.74 216.01 373.21"/><polyline class="cls-13" points="239.46 323.9 292.59 349.92 292.59 373.21"/><line class="cls-13" x1="64.95" y1="73.74" x2="64.95" y2="246.19"/><polyline class="cls-13" points="78.34 226.82 78.34 101.84 156.44 70.86"/><text class="cls-14" transform="translate(194.77 213.55)">54.5</text><text class="cls-15" transform="translate(233.78 213.55)">%</text><rect class="cls-16" x="193" y="173.13" width="56.59" height="19.48" rx="9.74"/><g id="Group_5213-7" data-name="Group 5213"><g id="Group_5212-7" data-name="Group 5212"><g id="企-7" data-name="企"><text class="cls-7" transform="translate(204.95 188.69)">BBB</text></g></g></g><text class="cls-14" transform="translate(84.99 182.87)">21.4</text><text class="cls-15" transform="translate(121.13 182.87)">%</text><rect class="cls-16" x="95.68" y="144.51" width="29.88" height="19.48" rx="9.74"/><g id="Group_5213-8" data-name="Group 5213"><g id="Group_5212-8" data-name="Group 5212"><g id="企-8" data-name="企"><text class="cls-17" transform="translate(106.45 160.07)">A</text></g></g></g><polygon class="cls-5" points="32.51 283.81 32.51 17.82 16.59 0 0.67 17.82 0.67 283.81 32.51 283.81"/><g id="Group_5213-9" data-name="Group 5213"><g id="Group_5212-9" data-name="Group 5212"><g id="企-9" data-name="企"><text class="cls-18" transform="translate(11.24 112.41) scale(0.98 1)">B<tspan x="0" y="18">B</tspan><tspan x="0" y="36">B</tspan><tspan x="-2.55" y="54">以</tspan><tspan x="-2.55" y="72">上</tspan></text></g></g></g><g id="Group_5213-10" data-name="Group 5213"><g id="Group_5212-10" data-name="Group 5212"><g id="企-10" data-name="企"><text class="cls-19" transform="translate(11.15 311.89)">B<tspan x="0" y="18">B</tspan><tspan x="0" y="36">B</tspan><tspan x="-2.55" y="54">以</tspan><tspan x="-2.55" y="72">下</tspan></text></g></g></g></svg>